<?xml version="1.0" encoding="utf-8"?>
<!-- Generator: Adobe Illustrator 21.0.2, SVG Export Plug-In . SVG Version: 6.00 Build 0)  -->
<svg version="1.1" id="Layer_1" xmlns="http://www.w3.org/2000/svg" xmlns:xlink="http://www.w3.org/1999/xlink" x="0px" y="0px"
	 viewBox="0 0 231.5 207.6" style="enable-background:new 0 0 231.5 207.6;" xml:space="preserve">
<style type="text/css">
	.st0{fill:#1F2A2A;}
</style>
<title>lockup</title>
<polygon class="st0" points="21.7,145.9 0,161.4 0,174.1 35.8,207.6 57.6,190.4 57.6,178.1 36.3,194.9 6.6,167 21.7,155.1 "/>
<polygon class="st0" points="209.7,62.1 231.5,46.1 231.5,33.6 195.8,0 173.9,17.2 173.9,29.5 195.3,12.7 224.9,40.6 209.7,52 "/>
<path class="st0" d="M46.8,74H49V60.7h-2.2v-2.6h7.9v2.6h-2.2V74h2.2v2.5h-7.9V74z"/>
<path class="st0" d="M57.3,74.1h1.9v-7.7c0-0.3-0.2-0.5-0.5-0.6c0,0-0.1,0-0.1,0h-1.5v-2.5h3.5c1.2,0,1.7,0.5,1.7,1.5v0.6
	c0,0.2,0,0.4-0.1,0.6h0.1c0.9-1.9,2.8-3,4.9-3c2.8,0,4.4,1.5,4.4,5v6.1h1.9v2.5h-5.2v-7.9c0-1.6-0.4-2.7-2.1-2.7
	c-2.4,0-3.8,2.3-3.8,4.6v3.5h1.9v2.5h-7.1L57.3,74.1z"/>
<path class="st0" d="M76.8,65.8h-2v-2.5h2.1v-3.6h3.2v3.6h3v2.5h-3v5.6c-0.1,1.3,0.9,2.5,2.2,2.6c0.2,0,0.3,0,0.5,0
	c0.2,0,0.4,0,0.6,0v2.7c-0.3,0.1-0.7,0.1-1,0.1c-1.9,0-5.5-0.5-5.5-5V65.8z"/>
<path class="st0" d="M92.1,63c3.8,0,5.9,2.8,5.9,6.3c0,0.4-0.1,1.1-0.1,1.1h-9.2c0.1,2.1,1.8,3.8,3.9,3.7c0,0,0,0,0,0
	c1.4-0.1,2.7-0.5,3.8-1.4l1.3,2.3c-1.5,1.2-3.4,1.9-5.4,1.8c-3.7,0.2-6.9-2.7-7.1-6.5c0-0.2,0-0.3,0-0.5C85.3,65.8,88.1,63,92.1,63z
	 M94.6,68.4c-0.1-1.8-1.2-2.9-2.6-2.9c-1.7,0-3,1.3-3.2,2.9H94.6z"/>
<path class="st0" d="M106.1,79.3c2,0,3.7-0.9,3.7-3.3v-0.8c0-0.2,0-0.5,0.1-0.7h-0.1c-0.8,1.2-2.2,1.9-3.7,1.8c-3.8,0-6-3.1-6-6.7
	c0-3.6,2.1-6.6,5.9-6.6c1.6,0,3.4,0.6,4.1,2h0.1c0-0.1-0.1-0.3-0.1-0.4c0-0.7,0.5-1.2,1.5-1.2h3.3v2.5h-1.3c-0.3,0-0.5,0.2-0.6,0.4
	c0,0,0,0.1,0,0.1v9.5c0,4.5-3.5,6.3-7,6.3c-1.6,0-3.3-0.4-4.7-1.1l1-2.4C103.5,79,104.8,79.3,106.1,79.3z M109.9,69.6
	c0-3-1.5-3.8-3.3-3.8c-2,0-3.1,1.5-3.1,3.7c0,2.3,1.2,4,3.3,4C108.4,73.5,109.9,72.6,109.9,69.6z"/>
<path class="st0" d="M117.2,74.1h1.9v-7.7c0-0.3-0.2-0.5-0.5-0.6c0,0-0.1,0-0.1,0h-1.5v-2.5h3.5c1.2,0,1.8,0.5,1.8,1.6v0.8
	c0,0.3,0,0.6-0.1,0.8h0.1c0.5-1.9,2.2-3.3,4.2-3.4c0.2,0,0.4,0,0.6,0.1v3.2c-0.3,0-0.5-0.1-0.8-0.1c-2.7,0-3.9,2.3-3.9,4.8v2.9h1.9
	v2.5h-7.1V74.1z"/>
<path class="st0" d="M129,74.1h1.9v-8.3h-2.1v-2.5h5.4v10.8h1.9v2.5H129L129,74.1z M130.9,58.1h3.3V61h-3.3V58.1z"/>
<path class="st0" d="M139.6,65.8h-2v-2.5h2.1v-3.6h3.2v3.6h3v2.5h-3v5.6c-0.1,1.3,0.9,2.5,2.2,2.6c0.2,0,0.3,0,0.5,0
	c0.2,0,0.4,0,0.6,0v2.7c-0.3,0.1-0.7,0.1-1,0.1c-1.9,0-5.5-0.5-5.5-5L139.6,65.8z"/>
<path class="st0" d="M150.9,79.3c1,0,2-0.6,2.3-1.5l0.4-0.8L149,65.8h-1.6v-2.5h6.5v2.5h-1.6l2.4,6.7c0.1,0.4,0.2,0.9,0.3,1.4h0.1
	c0.1-0.5,0.2-0.9,0.4-1.4l2.4-6.7h-1.5v-2.5h6.3v2.5h-1.5l-4.9,12.5c-0.7,2.3-2.9,3.8-5.3,3.7c-1.1,0-2.3-0.3-3.2-0.9l1.1-2.4
	C149.5,79.1,150.2,79.3,150.9,79.3z"/>
<path class="st0" d="M165,73.2h3.3l-2.6,6.4h-2.5L165,73.2z"/>
<path class="st0" d="M46.8,110H49V96.7h-2.2v-2.6h8.8c1.1,0,2.1,0.1,3.1,0.5c2.1,1,3.4,3.1,3.3,5.5c0.1,2.4-1.3,4.7-3.5,5.6
	c-0.9,0.3-1.9,0.4-2.8,0.4h-3.3v4h2.2v2.5h-7.9V110z M55.2,103.3c0.6,0,1.3-0.1,1.9-0.4c1.6-1.1,2-3.3,0.9-4.9
	c-0.2-0.3-0.4-0.6-0.7-0.8c-0.6-0.3-1.3-0.5-2-0.4h-2.9v6.4L55.2,103.3z"/>
<path class="st0" d="M71,104.4h0.8v-0.4c0-1.7-1.1-2.3-2.4-2.3c-1.3,0.1-2.6,0.5-3.7,1.3l-1.2-2.3c1.5-1.1,3.4-1.7,5.3-1.6
	c3.6,0,5.5,1.8,5.5,5.2v5.3c0,0.3,0.2,0.5,0.4,0.6c0,0,0.1,0,0.1,0h1.2v2.5h-3.1c-1.2,0-1.7-0.7-1.7-1.4V111c0-0.2,0-0.5,0.1-0.7
	h-0.1c-0.8,1.6-2.4,2.6-4.2,2.5c-2.3,0-4.4-1.3-4.4-4C63.5,104.8,68.8,104.4,71,104.4z M68.8,110.4c1.8,0,3.1-1.9,3.1-3.6v-0.4h-0.5
	c-1.3,0-4.4,0.2-4.4,2.2c0,1,0.8,1.8,1.8,1.8C68.6,110.4,68.7,110.4,68.8,110.4z"/>
<path class="st0" d="M78.9,110.1h1.9v-7.7c0-0.3-0.2-0.5-0.5-0.6c0,0-0.1,0-0.1,0h-1.5v-2.5h3.5c1.2,0,1.8,0.5,1.8,1.6v0.8
	c0,0.3,0,0.6-0.1,0.8H84c0.5-1.9,2.2-3.3,4.2-3.4c0.2,0,0.4,0,0.6,0.1v3.2c-0.3,0-0.5-0.1-0.8-0.1c-2.7,0-3.9,2.3-3.9,4.8v2.9H86
	v2.5h-7.1V110.1z"/>
<path class="st0" d="M92.1,101.8h-2v-2.5h2.1v-3.6h3.2v3.6h3v2.5h-3v5.6c-0.1,1.3,0.9,2.5,2.2,2.6c0.2,0,0.3,0,0.5,0
	c0.2,0,0.4,0,0.6,0v2.7c-0.3,0.1-0.7,0.1-1,0.1c-1.9,0-5.5-0.5-5.5-5L92.1,101.8z"/>
<path class="st0" d="M100.9,110.1h1.9v-7.7c0-0.3-0.2-0.5-0.5-0.6c0,0-0.1,0-0.1,0h-1.5v-2.5h3.5c1.2,0,1.7,0.5,1.7,1.5v0.6
	c0,0.2,0,0.4-0.1,0.6h0.1c0.9-1.9,2.8-3,4.9-3c2.8,0,4.4,1.5,4.4,5v6.1h1.9v2.5H112v-7.9c0-1.6-0.4-2.7-2.1-2.7
	c-2.4,0-3.8,2.3-3.8,4.6v3.5h1.9v2.5h-7.1L100.9,110.1z"/>
<path class="st0" d="M125.7,99c3.8,0,5.9,2.8,5.9,6.3c0,0.4-0.1,1.1-0.1,1.1h-9.2c0.1,2.1,1.8,3.8,3.9,3.7c0,0,0,0,0,0
	c1.4-0.1,2.7-0.5,3.8-1.4l1.3,2.3c-1.5,1.2-3.4,1.9-5.4,1.8c-3.7,0.2-6.9-2.7-7.1-6.5c0-0.2,0-0.3,0-0.5
	C119,101.8,121.8,99,125.7,99z M128.2,104.4c-0.1-1.8-1.2-2.9-2.6-2.9c-1.7,0-3,1.3-3.2,2.9H128.2z"/>
<path class="st0" d="M134.1,110.1h1.9v-7.7c0-0.3-0.2-0.5-0.5-0.6c0,0-0.1,0-0.1,0h-1.5v-2.5h3.5c1.2,0,1.8,0.5,1.8,1.6v0.8
	c0,0.3,0,0.6-0.1,0.8h0.1c0.5-1.9,2.2-3.3,4.2-3.4c0.2,0,0.4,0,0.6,0.1v3.2c-0.3,0-0.5-0.1-0.8-0.1c-2.7,0-3.9,2.3-3.9,4.8v2.9h1.9
	v2.5h-7.1L134.1,110.1z"/>
<path class="st0" d="M145.6,108.1h2.8v0.8c0,0.9,1.2,1.4,2.6,1.4c1.3,0,2.3-0.5,2.3-1.4c0-1.1-1.2-1.4-3-2.1c-2-0.7-4.2-1.6-4.2-4.1
	c0-2.8,2.8-3.8,5.2-3.8c1.9,0,4.8,0.8,4.8,2.8v1.7h-2.8v-0.8c0-0.7-0.8-1.1-2-1.1c-1,0-1.9,0.4-1.9,1.2c0,1.1,1.3,1.5,2.8,2
	c2,0.6,4.4,1.5,4.4,4.1c0,2.7-2.5,4-5.6,4c-2.4,0-5.4-1-5.4-3.2L145.6,108.1z"/>
<path class="st0" d="M158.5,110.1h1.9V96.6h-2.1v-2.5h5.4v6.4c0,0.4,0,0.7-0.1,1.1h0.1c0.9-1.7,2.7-2.7,4.6-2.7c2.9,0,4.6,1.5,4.6,5
	v6.1h1.9v2.5h-5.2v-7.9c0-1.6-0.4-2.7-2.1-2.7c-2.3,0-3.8,2-3.8,4.5v3.6h1.9v2.5h-7.1L158.5,110.1z"/>
<path class="st0" d="M176.9,110.1h1.9v-8.3h-2.1v-2.5h5.4v10.8h1.9v2.5h-7.1L176.9,110.1z M178.8,94.1h3.3V97h-3.3V94.1z"/>
<path class="st0" d="M187.7,115.3v-12.9c0-0.3-0.2-0.5-0.5-0.6c0,0-0.1,0-0.1,0h-1.5v-2.5h3.4c1.2,0,1.6,0.6,1.6,1.2v0.1
	c0,0.3,0,0.6,0,0.6h0.1c0.9-1.5,2.5-2.3,4.3-2.2c3.6,0,5.9,2.8,5.9,6.9c0,4.2-2.6,6.9-6.1,6.9c-1.5,0-2.9-0.7-3.8-1.9h-0.1
	c0.1,0.4,0.1,0.8,0.1,1.1v3.1h1.9v2.5h-7.2v-2.5L187.7,115.3z M194.2,110.1c1.8,0,3.3-1.5,3.3-4.1c0-2.5-1.4-4.2-3.3-4.2
	c-1.7,0-3.3,1.2-3.3,4.2C190.9,108.1,192,110.1,194.2,110.1L194.2,110.1z"/>
<path class="st0" d="M204.3,109.2h3.3l-2.6,6.4h-2.5L204.3,109.2z"/>
<path class="st0" d="M56.1,129.8c2.2,0,7.2,0.8,7.2,3.7v2.5h-3.1v-1.4c0-1.4-2.4-1.8-4-1.8c-3.6,0-6.2,2.5-6.2,6.4
	c0,4.2,2.7,6.9,6.3,6.9c1.1,0,4-0.4,4-1.8v-1.4h3.1v2.5c0,2.8-4.8,3.6-7.3,3.6c-5.2,0.1-9.5-4-9.6-9.2c0-0.1,0-0.3,0-0.4
	c-0.1-5.1,4-9.4,9.1-9.5C55.8,129.8,56,129.8,56.1,129.8z"/>
<path class="st0" d="M73.2,135c3.8-0.2,7.1,2.8,7.3,6.6s-2.8,7.1-6.6,7.3c-0.2,0-0.5,0-0.7,0c-4.1,0-7.3-2.9-7.3-6.9
	c0-3.9,3.1-7,7-6.9C73.1,135,73.2,135,73.2,135z M73.3,146.1c2.3,0.1,4.2-1.7,4.3-3.9s-1.7-4.2-3.9-4.3c-2.3-0.1-4.2,1.7-4.3,3.9
	c0,0.1,0,0.1,0,0.2c-0.1,2.2,1.6,4,3.7,4.1C73.1,146.1,73.2,146.1,73.3,146.1L73.3,146.1z"/>
<path class="st0" d="M82.9,146.1h1.9v-7.8c0-0.3-0.2-0.5-0.4-0.5c0,0-0.1,0-0.1,0h-1.5v-2.5h3.5c1.2,0,1.7,0.5,1.7,1.5v0.6
	c0,0.2,0,0.4-0.1,0.6H88c0.9-1.7,2.6-2.9,4.5-3c1.8-0.1,3.4,1.1,3.7,2.9h0.1c0.9-1.8,2.6-2.9,4.6-2.9c2.7,0,4.3,1.6,4.3,5v6.1h1.9
	v2.5h-5.2v-7.9c0-1.5-0.3-2.7-1.8-2.7c-2.3,0-3.4,2.3-3.4,4.7v3.4h1.9v2.5h-5.2v-7.9c0-1.4-0.2-2.7-1.8-2.7c-2.3,0-3.4,2.5-3.4,4.9
	v3.2H90v2.5h-7.1L82.9,146.1z"/>
<path class="st0" d="M109.1,146.1h1.9v-7.8c0-0.3-0.2-0.5-0.4-0.5c0,0-0.1,0-0.1,0h-1.5v-2.5h3.5c1.2,0,1.7,0.5,1.7,1.5v0.6
	c0,0.2,0,0.4-0.1,0.6h0.1c0.9-1.7,2.6-2.9,4.5-3c1.8-0.1,3.4,1.1,3.7,2.9h0.1c0.9-1.8,2.6-2.9,4.6-2.9c2.7,0,4.3,1.6,4.3,5v6.1h1.9
	v2.5H128v-7.9c0-1.5-0.3-2.7-1.8-2.7c-2.3,0-3.4,2.3-3.4,4.7v3.4h1.9v2.5h-5.2v-7.9c0-1.4-0.2-2.7-1.8-2.7c-2.3,0-3.4,2.5-3.4,4.9
	v3.2h1.9v2.5h-7.1L109.1,146.1z"/>
<path class="st0" d="M135.3,146.1h1.9v-8.3h-2.1v-2.5h5.4v10.8h1.9v2.5h-7.1L135.3,146.1z M137.2,130.1h3.3v2.9h-3.3V130.1z"/>
<path class="st0" d="M145.8,137.8h-2v-2.5h2.1v-3.6h3.2v3.6h3v2.5h-3v5.6c-0.1,1.3,0.9,2.5,2.2,2.6c0.2,0,0.3,0,0.5,0
	c0.2,0,0.4,0,0.6,0v2.7c-0.3,0.1-0.7,0.1-1,0.1c-1.9,0-5.5-0.5-5.5-5L145.8,137.8z"/>
<path class="st0" d="M154.6,146.1h1.9v-7.8c0-0.3-0.2-0.5-0.4-0.5c0,0-0.1,0-0.1,0h-1.5v-2.5h3.5c1.2,0,1.7,0.5,1.7,1.5v0.6
	c0,0.2,0,0.4-0.1,0.6h0.1c0.9-1.7,2.6-2.9,4.5-3c1.8-0.1,3.4,1.1,3.7,2.9h0.1c0.9-1.8,2.6-2.9,4.6-2.9c2.7,0,4.3,1.6,4.3,5v6.1h1.9
	v2.5h-5.2v-7.9c0-1.5-0.3-2.7-1.8-2.7c-2.3,0-3.4,2.3-3.4,4.7v3.4h1.9v2.5h-5.2v-7.9c0-1.4-0.2-2.7-1.8-2.7c-2.3,0-3.4,2.5-3.4,4.9
	v3.2h1.9v2.5h-7.1L154.6,146.1z"/>
<path class="st0" d="M187.3,135c3.8,0,5.9,2.8,5.9,6.3c0,0.4-0.1,1.1-0.1,1.1h-9.2c0.1,2.1,1.8,3.8,3.9,3.7c0,0,0,0,0,0
	c1.4-0.1,2.7-0.5,3.8-1.4l1.3,2.3c-1.5,1.2-3.4,1.9-5.4,1.8c-3.7,0.2-6.9-2.7-7.1-6.5c0-0.2,0-0.3,0-0.5
	C180.5,137.8,183.3,135,187.3,135z M189.8,140.4c-0.1-1.8-1.2-2.9-2.6-2.9c-1.7,0-3,1.3-3.2,2.9H189.8z"/>
<path class="st0" d="M195.6,146.1h1.9v-7.7c0-0.3-0.2-0.5-0.5-0.6c0,0-0.1,0-0.1,0h-1.5v-2.5h3.5c1.2,0,1.7,0.5,1.7,1.5v0.6
	c0,0.2,0,0.4-0.1,0.6h0.1c0.9-1.9,2.8-3,4.9-3c2.8,0,4.4,1.5,4.4,5v6.1h1.9v2.5h-5.2v-7.9c0-1.6-0.4-2.7-2.1-2.7
	c-2.4,0-3.8,2.3-3.8,4.6v3.5h1.9v2.5h-7.1L195.6,146.1z"/>
<path class="st0" d="M215.1,137.8h-2v-2.5h2.1v-3.6h3.2v3.6h3v2.5h-3v5.6c-0.1,1.3,0.9,2.5,2.2,2.6c0.2,0,0.3,0,0.5,0
	c0.2,0,0.4,0,0.6,0v2.7c-0.3,0.1-0.7,0.1-1,0.1c-1.9,0-5.5-0.5-5.5-5V137.8z"/>
<path class="st0" d="M224.6,145.2h3.3v3.3h-3.3V145.2z"/>
</svg>
