<svg xmlns="http://www.w3.org/2000/svg" viewBox="0 0 145.1212 254.47855"><title>pattern2</title><polyline points="78.5 172.656 101.482 154.564 101.482 141.603 79.029 159.252 47.857 129.972 63.712 117.414 63.711 107.689 40.895 123.978 40.89 137.357 78.5 172.656" style="fill:#3a4848"/><polygon points="78.567 147.499 101.483 130.617 101.483 117.435 63.884 82.135 40.902 100.228 40.902 113.188 63.355 95.539 94.516 124.82 78.567 136.801 78.567 147.499" style="fill:#3a4848"/><polyline points="106.55 108.689 129.532 90.597 129.532 77.637 107.079 95.285 75.908 66.005 91.763 53.448 91.762 43.722 68.946 60.012 68.94 73.39 106.55 108.689" style="fill:#3a4848"/><polygon points="106.618 83.533 129.534 66.65 129.534 53.468 91.935 18.169 68.953 36.261 68.953 49.222 91.405 31.573 122.567 60.853 106.618 72.835 106.618 83.533" style="fill:#3a4848"/><polyline points="37.61 90.521 60.592 72.428 60.592 59.468 38.139 77.117 6.968 47.836 22.822 35.279 22.821 25.553 0.005 41.843 0 55.222 37.61 90.521" style="fill:#3a4848"/><polygon points="37.677 65.364 60.593 48.482 60.593 35.3 22.994 0 0.013 18.093 0.013 31.053 22.465 13.404 53.626 42.684 37.677 54.666 37.677 65.364" style="fill:#3a4848"/><polyline points="122.138 254.479 145.12 236.386 145.12 223.426 122.667 241.075 91.496 211.794 107.35 199.237 107.349 189.511 84.533 205.801 84.528 219.18 122.138 254.479" style="fill:#3a4848"/><polygon points="122.205 229.322 145.121 212.439 145.121 199.258 107.522 163.958 84.541 182.051 84.541 195.011 106.993 177.362 138.154 206.642 122.205 218.624 122.205 229.322" style="fill:#3a4848"/><polyline points="53.197 238.311 76.179 220.219 76.179 207.259 53.727 224.908 22.555 195.627 38.41 183.07 38.409 173.344 15.593 189.634 15.588 203.012 53.197 238.311" style="fill:#3a4848"/><polygon points="53.265 213.155 76.181 196.272 76.181 183.09 38.582 147.791 15.6 165.884 15.6 178.844 38.052 161.195 69.214 190.475 53.265 202.457 53.265 213.155" style="fill:#3a4848"/></svg>