<svg xmlns="http://www.w3.org/2000/svg" viewBox="0 0 104.23131 236.30983"><title>pattern3</title><polyline points="37.61 154.487 60.592 136.395 60.592 123.434 38.139 141.083 6.968 111.803 22.822 99.245 22.821 89.52 0.005 105.809 0 119.188 37.61 154.487" style="fill:#3a4848"/><polygon points="37.677 129.331 60.593 112.448 60.593 99.266 22.994 63.967 0.013 82.059 0.013 95.02 22.465 77.37 53.626 106.651 37.677 118.632 37.677 129.331" style="fill:#3a4848"/><polyline points="65.66 90.521 88.642 72.428 88.642 59.468 66.19 77.117 35.018 47.836 50.873 35.279 50.872 25.553 28.056 41.843 28.051 55.222 65.66 90.521" style="fill:#3a4848"/><polygon points="65.728 65.364 88.644 48.482 88.644 35.3 51.045 0 28.063 18.093 28.063 31.053 50.515 13.404 81.677 42.684 65.728 54.666 65.728 65.364" style="fill:#3a4848"/><polyline points="81.248 236.31 104.23 218.218 104.23 205.257 81.777 222.906 50.606 193.626 66.46 181.068 66.46 171.343 43.643 187.632 43.638 201.011 81.248 236.31" style="fill:#3a4848"/><polygon points="81.315 211.153 104.231 194.271 104.231 181.089 66.632 145.789 43.651 163.882 43.651 176.842 66.103 159.193 97.264 188.474 81.315 200.455 81.315 211.153" style="fill:#3a4848"/></svg>