<svg xmlns="http://www.w3.org/2000/svg" viewBox="0 0 171.16129 318.44505"><title>pattern-footer</title><polyline points="78.5 236.622 101.482 218.53 101.482 205.57 79.029 223.218 47.857 193.938 63.712 181.381 63.711 171.655 40.895 187.945 40.89 201.323 78.5 236.622" style="fill:#3a4848"/><polygon points="78.567 211.466 101.483 194.583 101.483 181.401 63.884 146.102 40.902 164.194 40.902 177.155 63.355 159.506 94.516 188.786 78.567 200.768 78.567 211.466" style="fill:#3a4848"/><polyline points="65.158 90.521 88.14 72.428 88.14 59.468 65.687 77.117 34.515 47.836 50.37 35.279 50.369 25.553 27.553 41.843 27.548 55.222 65.158 90.521" style="fill:#3a4848"/><polygon points="65.225 65.364 88.141 48.482 88.141 35.3 50.542 0 27.56 18.093 27.56 31.053 50.013 13.404 81.174 42.684 65.225 54.666 65.225 65.364" style="fill:#3a4848"/><polyline points="106.55 172.656 129.532 154.564 129.532 141.603 107.079 159.252 75.908 129.972 91.763 117.414 91.762 107.689 68.946 123.978 68.94 137.357 106.55 172.656" style="fill:#3a4848"/><polygon points="106.618 147.499 129.534 130.617 129.534 117.435 91.935 82.135 68.953 100.228 68.953 113.188 91.405 95.539 122.567 124.82 106.618 136.801 106.618 147.499" style="fill:#3a4848"/><polyline points="37.61 154.487 60.592 136.395 60.592 123.434 38.139 141.083 6.968 111.803 22.822 99.245 22.821 89.52 0.005 105.809 0 119.188 37.61 154.487" style="fill:#3a4848"/><polygon points="37.677 129.331 60.593 112.448 60.593 99.266 22.994 63.967 0.013 82.059 0.013 95.02 22.465 77.37 53.626 106.651 37.677 118.632 37.677 129.331" style="fill:#3a4848"/><polyline points="122.138 318.445 145.12 300.353 145.12 287.392 122.667 305.041 91.496 275.761 107.35 263.203 107.349 253.478 84.533 269.767 84.528 283.146 122.138 318.445" style="fill:#3a4848"/><polygon points="122.205 293.289 145.121 276.406 145.121 263.224 107.522 227.924 84.541 246.017 84.541 258.977 106.993 241.328 138.154 270.609 122.205 282.59 122.205 293.289" style="fill:#3a4848"/><polyline points="148.178 253.478 171.16 235.386 171.16 222.425 148.707 240.074 117.536 210.794 133.39 198.236 133.39 188.51 110.573 204.8 110.568 218.179 148.178 253.478" style="fill:#3a4848"/><polygon points="148.245 228.321 171.161 211.439 171.161 198.257 133.562 162.957 110.581 181.05 110.581 194.01 133.033 176.361 164.194 205.642 148.245 217.623 148.245 228.321" style="fill:#3a4848"/></svg>