<svg xmlns="http://www.w3.org/2000/svg" viewBox="0 0 129.53365 172.65582"><title>pattern1</title><polyline points="78.5 172.656 101.482 154.564 101.482 141.603 79.029 159.252 47.857 129.972 63.712 117.414 63.711 107.689 40.895 123.978 40.89 137.357 78.5 172.656" style="fill:#285281"/><polygon points="78.567 147.499 101.483 130.617 101.483 117.435 63.884 82.135 40.902 100.228 40.902 113.188 63.355 95.539 94.516 124.82 78.567 136.801 78.567 147.499" style="fill:#285281"/><polyline points="106.55 109.69 129.532 91.598 129.532 78.637 107.079 96.286 75.908 67.006 91.763 54.448 91.762 44.723 68.946 61.012 68.94 74.391 106.55 109.69" style="fill:#285281"/><polygon points="106.618 84.534 129.534 67.651 129.534 54.469 91.935 19.17 68.953 37.262 68.953 50.223 91.405 32.573 122.567 61.854 106.618 73.835 106.618 84.534" style="fill:#285281"/><polyline points="37.61 90.521 60.592 72.428 60.592 59.468 38.139 77.117 6.968 47.836 22.822 35.279 22.821 25.553 0.005 41.843 0 55.222 37.61 90.521" style="fill:#285281"/><polygon points="37.677 65.364 60.593 48.482 60.593 35.3 22.994 0 0.013 18.093 0.013 31.053 22.465 13.404 53.626 42.684 37.677 54.666 37.677 65.364" style="fill:#285281"/></svg>